HIERARCHY
ROOT mixamorig:Hips
{
	OFFSET 0.000000 201.639420 0.000000
	CHANNELS 6 Xposition Yposition Zposition Xrotation Yrotation Zrotation
	JOINT mixamorig:Spine
	{
		OFFSET 0.006200 19.524994 -2.481800
		CHANNELS 3 Xrotation Yrotation Zrotation
		JOINT mixamorig:Spine1
		{
			OFFSET -0.000900 22.835007 -2.825400
			CHANNELS 3 Xrotation Yrotation Zrotation
			JOINT mixamorig:Spine2
			{
				OFFSET -0.020600 26.552490 -3.193300
				CHANNELS 3 Xrotation Yrotation Zrotation
				JOINT mixamorig:Neck
				{
					OFFSET -0.060000 30.701813 1.352200
					CHANNELS 3 Xrotation Yrotation Zrotation
					JOINT mixamorig:Head
					{
						OFFSET -0.087200 22.547607 3.670900
						CHANNELS 3 Xrotation Yrotation Zrotation
						JOINT mixamorig:HeadTop_End
						{
							OFFSET -0.830600 40.355194 7.893500
							CHANNELS 3 Xrotation Yrotation Zrotation
							End Site
							{
								OFFSET 0.000000 30.592346 0.000000
							}
						}
						JOINT mixamorig:RightEye
						{
							OFFSET -6.302100 18.118591 16.197100
							CHANNELS 3 Xrotation Yrotation Zrotation
							End Site
							{
								OFFSET 0.000000 30.592346 0.000000
							}
						}
						JOINT mixamorig:LeftEye
						{
							OFFSET 6.741500 18.382690 16.401899
							CHANNELS 3 Xrotation Yrotation Zrotation
							End Site
							{
								OFFSET 0.000000 30.592346 0.000000
							}
						}
					}
				}
				JOINT mixamorig:LeftShoulder
				{
					OFFSET 11.924900 18.230499 1.425400
					CHANNELS 3 Xrotation Yrotation Zrotation
					JOINT mixamorig:LeftArm
					{
						OFFSET 25.435989 -0.697632 -5.229300
						CHANNELS 3 Xrotation Yrotation Zrotation
						JOINT mixamorig:LeftForeArm
						{
							OFFSET 54.684776 0.000000 0.000000
							CHANNELS 3 Xrotation Yrotation Zrotation
							JOINT mixamorig:LeftHand
							{
								OFFSET 55.098175 0.000000 0.000000
								CHANNELS 3 Xrotation Yrotation Zrotation
								JOINT mixamorig:LeftHandMiddle1
								{
									OFFSET 23.369751 0.000000 0.000000
									CHANNELS 3 Xrotation Yrotation Zrotation
									JOINT mixamorig:LeftHandMiddle2
									{
										OFFSET 6.378677 0.000000 0.000000
										CHANNELS 3 Xrotation Yrotation Zrotation
										JOINT mixamorig:LeftHandMiddle3
										{
											OFFSET 6.148331 0.000000 0.000000
											CHANNELS 3 Xrotation Yrotation Zrotation
											JOINT mixamorig:LeftHandMiddle4
											{
												OFFSET 6.582504 0.000000 0.000000
												CHANNELS 3 Xrotation Yrotation Zrotation
												End Site
												{
													OFFSET -1.168900 6.395691 1.028606
												}
											}
										}
									}
								}
								JOINT mixamorig:LeftHandThumb1
								{
									OFFSET 7.235672 -3.848206 5.434273
									CHANNELS 3 Xrotation Yrotation Zrotation
									JOINT mixamorig:LeftHandThumb2
									{
										OFFSET 6.568451 -3.792297 3.792300
										CHANNELS 3 Xrotation Yrotation Zrotation
										JOINT mixamorig:LeftHandThumb3
										{
											OFFSET 6.063080 -3.500519 3.500518
											CHANNELS 3 Xrotation Yrotation Zrotation
											JOINT mixamorig:LeftHandThumb4
											{
												OFFSET 4.793182 -2.767334 2.767349
												CHANNELS 3 Xrotation Yrotation Zrotation
												End Site
												{
													OFFSET 0.101639 6.054260 1.275483
												}
											}
										}
									}
								}
								JOINT mixamorig:LeftHandIndex1
								{
									OFFSET 23.101074 -0.309540 4.992809
									CHANNELS 3 Xrotation Yrotation Zrotation
									JOINT mixamorig:LeftHandIndex2
									{
										OFFSET 6.226883 0.000000 0.000000
										CHANNELS 3 Xrotation Yrotation Zrotation
										JOINT mixamorig:LeftHandIndex3
										{
											OFFSET 6.094330 0.000000 0.000000
											CHANNELS 3 Xrotation Yrotation Zrotation
											JOINT mixamorig:LeftHandIndex4
											{
												OFFSET 5.482605 0.000000 0.000000
												CHANNELS 3 Xrotation Yrotation Zrotation
												End Site
												{
													OFFSET -1.427902 5.233032 0.797164
												}
											}
										}
									}
								}
								JOINT mixamorig:LeftHandRing1
								{
									OFFSET 22.299240 0.021149 -3.964172
									CHANNELS 3 Xrotation Yrotation Zrotation
									JOINT mixamorig:LeftHandRing2
									{
										OFFSET 6.321869 0.000000 0.000000
										CHANNELS 3 Xrotation Yrotation Zrotation
										JOINT mixamorig:LeftHandRing3
										{
											OFFSET 5.899796 0.000000 0.000000
											CHANNELS 3 Xrotation Yrotation Zrotation
											JOINT mixamorig:LeftHandRing4
											{
												OFFSET 6.517899 0.000000 0.000000
												CHANNELS 3 Xrotation Yrotation Zrotation
												End Site
												{
													OFFSET -1.637299 6.232208 0.980890
												}
											}
										}
									}
								}
								JOINT mixamorig:LeftHandPinky1
								{
									OFFSET 20.463791 -0.302338 -8.562233
									CHANNELS 3 Xrotation Yrotation Zrotation
									JOINT mixamorig:LeftHandPinky2
									{
										OFFSET 6.908646 0.000000 0.000000
										CHANNELS 3 Xrotation Yrotation Zrotation
										JOINT mixamorig:LeftHandPinky3
										{
											OFFSET 4.622849 0.000000 0.000000
											CHANNELS 3 Xrotation Yrotation Zrotation
											JOINT mixamorig:LeftHandPinky4
											{
												OFFSET 5.216080 0.000000 0.000000
												CHANNELS 3 Xrotation Yrotation Zrotation
												End Site
												{
													OFFSET -0.606308 5.116241 0.814926
												}
											}
										}
									}
								}
							}
						}
					}
				}
				JOINT mixamorig:RightShoulder
				{
					OFFSET -12.001300 18.284088 1.348900
					CHANNELS 3 Xrotation Yrotation Zrotation
					JOINT mixamorig:RightArm
					{
						OFFSET -25.308500 -0.751312 -5.164599
						CHANNELS 3 Xrotation Yrotation Zrotation
						JOINT mixamorig:RightForeArm
						{
							OFFSET -54.684429 0.000000 0.000000
							CHANNELS 3 Xrotation Yrotation Zrotation
							JOINT mixamorig:RightHand
							{
								OFFSET -55.150291 0.000000 0.000000
								CHANNELS 3 Xrotation Yrotation Zrotation
								JOINT mixamorig:RightHandMiddle1
								{
									OFFSET -23.317566 0.000000 0.000000
									CHANNELS 3 Xrotation Yrotation Zrotation
									JOINT mixamorig:RightHandMiddle2
									{
										OFFSET -6.378403 0.000000 0.000000
										CHANNELS 3 Xrotation Yrotation Zrotation
										JOINT mixamorig:RightHandMiddle3
										{
											OFFSET -6.148193 0.000000 0.000000
											CHANNELS 3 Xrotation Yrotation Zrotation
											JOINT mixamorig:RightHandMiddle4
											{
												OFFSET -6.583389 0.000000 0.000000
												CHANNELS 3 Xrotation Yrotation Zrotation
												End Site
												{
													OFFSET 1.171692 6.395905 1.029786
												}
											}
										}
									}
								}
								JOINT mixamorig:RightHandThumb1
								{
									OFFSET -7.190521 -3.860474 5.435846
									CHANNELS 3 Xrotation Yrotation Zrotation
									JOINT mixamorig:RightHandThumb2
									{
										OFFSET -6.567429 -3.791718 3.791708
										CHANNELS 3 Xrotation Yrotation Zrotation
										JOINT mixamorig:RightHandThumb3
										{
											OFFSET -6.062469 -3.500153 3.500166
											CHANNELS 3 Xrotation Yrotation Zrotation
											JOINT mixamorig:RightHandThumb4
											{
												OFFSET -4.792618 -2.767029 2.767022
												CHANNELS 3 Xrotation Yrotation Zrotation
												End Site
												{
													OFFSET -0.100327 6.053253 1.276754
												}
											}
										}
									}
								}
								JOINT mixamorig:RightHandIndex1
								{
									OFFSET -23.048981 -0.310791 4.992554
									CHANNELS 3 Xrotation Yrotation Zrotation
									JOINT mixamorig:RightHandIndex2
									{
										OFFSET -6.227539 0.000000 0.000000
										CHANNELS 3 Xrotation Yrotation Zrotation
										JOINT mixamorig:RightHandIndex3
										{
											OFFSET -6.095047 0.000000 0.000000
											CHANNELS 3 Xrotation Yrotation Zrotation
											JOINT mixamorig:RightHandIndex4
											{
												OFFSET -5.484772 0.000000 0.000000
												CHANNELS 3 Xrotation Yrotation Zrotation
												End Site
												{
													OFFSET 1.420593 5.237305 0.797056
												}
											}
										}
									}
								}
								JOINT mixamorig:RightHandRing1
								{
									OFFSET -22.246323 0.020569 -3.963762
									CHANNELS 3 Xrotation Yrotation Zrotation
									JOINT mixamorig:RightHandRing2
									{
										OFFSET -6.322128 0.000000 0.000000
										CHANNELS 3 Xrotation Yrotation Zrotation
										JOINT mixamorig:RightHandRing3
										{
											OFFSET -5.900024 0.000000 0.000000
											CHANNELS 3 Xrotation Yrotation Zrotation
											JOINT mixamorig:RightHandRing4
											{
												OFFSET -6.518356 0.000000 0.000000
												CHANNELS 3 Xrotation Yrotation Zrotation
												End Site
												{
													OFFSET 1.636398 6.232697 0.982186
												}
											}
										}
									}
								}
								JOINT mixamorig:RightHandPinky1
								{
									OFFSET -20.411011 -0.303314 -8.561701
									CHANNELS 3 Xrotation Yrotation Zrotation
									JOINT mixamorig:RightHandPinky2
									{
										OFFSET -6.907349 0.000000 0.000000
										CHANNELS 3 Xrotation Yrotation Zrotation
										JOINT mixamorig:RightHandPinky3
										{
											OFFSET -4.623840 0.000000 0.000000
											CHANNELS 3 Xrotation Yrotation Zrotation
											JOINT mixamorig:RightHandPinky4
											{
												OFFSET -5.218353 0.000000 0.000000
												CHANNELS 3 Xrotation Yrotation Zrotation
												End Site
												{
													OFFSET 0.602097 5.118835 0.816273
												}
											}
										}
									}
								}
							}
						}
					}
				}
			}
		}
	}
	JOINT mixamorig:LeftUpLeg
	{
		OFFSET 18.168400 -13.561905 -0.039000
		CHANNELS 3 Xrotation Yrotation Zrotation
		JOINT mixamorig:LeftLeg
		{
			OFFSET 0.577358 -80.825211 -3.695000
			CHANNELS 3 Xrotation Yrotation Zrotation
			JOINT mixamorig:LeftFoot
			{
				OFFSET -0.577356 -83.370262 -6.520700
				CHANNELS 3 Xrotation Yrotation Zrotation
				JOINT mixamorig:LeftToeBase
				{
					OFFSET 0.750401 -20.798306 25.135401
					CHANNELS 3 Xrotation Yrotation Zrotation
					JOINT mixamorig:LeftToe_End
					{
						OFFSET -0.000500 0.001200 19.917799
						CHANNELS 3 Xrotation Yrotation Zrotation
						End Site
						{
							OFFSET 0.000000 19.917805 0.000000
						}
					}
				}
			}
		}
	}
	JOINT mixamorig:RightUpLeg
	{
		OFFSET -18.162500 -13.585098 -0.041000
		CHANNELS 3 Xrotation Yrotation Zrotation
		JOINT mixamorig:RightLeg
		{
			OFFSET -0.595024 -80.945297 -3.631900
			CHANNELS 3 Xrotation Yrotation Zrotation
			JOINT mixamorig:RightFoot
			{
				OFFSET 0.595024 -83.218193 -6.561200
				CHANNELS 3 Xrotation Yrotation Zrotation
				JOINT mixamorig:RightToeBase
				{
					OFFSET -0.753601 -20.807106 25.115000
					CHANNELS 3 Xrotation Yrotation Zrotation
					JOINT mixamorig:RightToe_End
					{
						OFFSET 0.000299 0.001700 19.918200
						CHANNELS 3 Xrotation Yrotation Zrotation
						End Site
						{
							OFFSET 0.000000 19.918203 0.000000
						}
					}
				}
			}
		}
	}
}
MOTION
Frames: 4
Frame Time: 0.033333
-63.151192 145.821442 151.786453 19.516449 53.874592 -20.160499 12.361730 -5.065795 -0.414615 2.923923 -0.391099 2.014694 2.968157 -0.199023 1.953940 0.291508 -6.207075 -5.949369 1.592563 -44.783126 42.331808 0.000002 0.000000 0.000000 0.000002 0.000000 0.000000 0.000002 0.000000 0.000000 4.224522 -34.088651 -0.152336 -65.554038 -33.861052 -59.830756 0.002162 -90.393141 0.002616 -40.114524 -12.005750 40.978847 1.973177 4.829006 -44.431040 4.287483 6.375845 -67.808383 1.798344 4.644567 -42.313941 0.000004 0.000001 -0.000002 21.517372 8.235284 -27.163340 22.939349 19.036051 12.459571 7.969180 6.174916 9.535371 0.000000 0.000000 0.000002 2.917505 5.629443 -54.764091 4.896156 6.589970 -73.195401 1.351335 4.101651 -36.456681 0.000000 -0.000001 0.000003 1.974537 4.830411 -44.447149 4.285696 6.375119 -67.792216 1.798334 4.644560 -42.313934 -0.000001 -0.000001 -0.000003 6.249855 7.972521 -54.648473 4.909037 2.506891 -73.357741 1.351311 4.101665 -36.456667 -0.000001 0.000000 -0.000003 0.348611 19.810561 -27.901353 -30.193326 6.204983 14.466498 0.000001 28.469463 -0.000000 25.399679 25.583139 -16.764903 2.909506 -5.658591 54.394144 3.753781 -6.173574 62.571541 1.464122 -4.272951 37.813485 0.000000 0.000001 -0.000002 25.626217 -6.949365 30.094008 13.709598 -18.489556 -19.718978 4.019193 -3.678607 -12.570875 0.000000 -0.000002 0.000005 4.243571 -6.402584 67.041087 3.958612 -6.274997 64.460716 1.067727 -3.707559 32.121826 0.000002 -0.000003 -0.000000 2.909513 -5.658597 54.394134 3.753778 -6.173574 62.571547 1.464127 -4.272952 37.813481 0.000000 0.000003 -0.000003 4.243561 -6.402576 67.041087 3.958618 -6.275028 64.460716 1.067730 -3.707552 32.121826 -0.000003 -0.000000 -0.000001 -40.678756 -18.250382 40.727366 41.325513 -4.995664 9.835564 -11.748077 -3.644737 -32.196344 -0.130579 0.000002 0.000001 0.000001 0.000000 -0.000000 -73.450092 1.278901 -30.035238 74.889882 -5.293491 -0.321430 -4.642547 -2.009749 19.136785 -0.008301 -0.000003 -0.000003 0.000000 -0.000002 0.000000 
-61.178959 147.019073 150.206573 17.959190 55.044880 -19.553430 12.339735 -4.514499 -0.397196 2.780830 -0.332735 1.939029 2.818507 -0.163281 1.881184 0.406917 -6.356100 -5.802936 2.771561 -45.732901 43.633653 0.000001 0.000000 -0.000000 0.000001 0.000000 -0.000000 0.000001 0.000000 -0.000000 4.252262 -34.164965 -0.194503 -62.060560 -34.460787 -58.619976 -0.003277 -91.016485 -0.003247 -39.172535 -11.979046 41.503696 1.973179 4.829001 -44.431040 4.287482 6.375842 -67.808383 1.798341 4.644566 -42.313944 0.000001 0.000001 0.000001 21.517367 8.235278 -27.163334 22.939347 19.036051 12.459571 7.969180 6.174912 9.535364 0.000001 -0.000001 -0.000002 2.917507 5.629436 -54.764091 4.896158 6.589968 -73.195401 1.351330 4.101652 -36.456685 -0.000004 -0.000002 -0.000003 1.974543 4.830409 -44.447145 4.285695 6.375116 -67.792223 1.798335 4.644562 -42.313930 -0.000002 0.000000 0.000001 6.249858 7.972520 -54.648473 4.909034 2.506892 -73.357741 1.351309 4.101665 -36.456667 -0.000004 -0.000000 -0.000002 1.213252 20.272160 -26.306398 -27.883592 6.277721 13.181984 -0.000001 29.564460 0.000000 22.987739 24.205905 -16.209366 2.909506 -5.658597 54.394148 3.753789 -6.173574 62.571547 1.464117 -4.272957 37.813485 0.000006 -0.000001 0.000000 25.626217 -6.949368 30.094005 13.709597 -18.489556 -19.718971 4.019187 -3.678610 -12.570876 -0.000001 0.000000 -0.000002 4.243575 -6.402589 67.041093 3.958615 -6.274994 64.460709 1.067722 -3.707556 32.121833 0.000001 0.000000 -0.000005 2.909510 -5.658598 54.394138 3.753775 -6.173573 62.571547 1.464118 -4.272952 37.813485 0.000003 0.000001 -0.000001 4.243561 -6.402583 67.041087 3.958624 -6.275030 64.460709 1.067728 -3.707553 32.121833 0.000000 -0.000001 -0.000001 -40.992654 -18.751410 39.778772 43.463721 -4.986957 9.842138 -11.891003 -3.381708 -32.229532 -0.115055 0.000010 -0.000004 0.000001 0.000001 0.000001 -70.117076 0.833921 -30.462876 72.747744 -6.376525 -0.707322 -3.732537 -2.021054 20.816062 -0.000010 0.000012 -0.000001 0.000000 0.000000 -0.000000 
-58.572079 148.417648 147.957397 15.770261 56.119184 -18.458849 12.164717 -4.163715 -0.559574 2.634096 -0.314845 1.754229 2.664859 -0.168039 1.700114 1.568962 -6.424962 -5.107936 3.726567 -46.549986 43.831428 -0.000001 -0.000000 0.000000 -0.000001 -0.000000 0.000000 -0.000001 -0.000000 0.000000 4.397704 -34.414089 -0.057045 -57.242958 -31.681248 -53.430688 -0.002430 -93.510453 -0.002473 -39.713978 -11.663359 41.525614 1.973179 4.829002 -44.431043 4.287481 6.375841 -67.808390 1.798345 4.644567 -42.313941 -0.000002 0.000000 0.000002 21.517370 8.235279 -27.163340 22.939351 19.036055 12.459570 7.969180 6.174913 9.535371 -0.000001 0.000001 -0.000001 2.917508 5.629440 -54.764091 4.896155 6.589976 -73.195401 1.351328 4.101652 -36.456685 0.000002 -0.000001 0.000001 1.974544 4.830411 -44.447149 4.285695 6.375123 -67.792223 1.798330 4.644562 -42.313934 -0.000006 -0.000000 -0.000000 6.249858 7.972521 -54.648477 4.909036 2.506889 -73.357741 1.351311 4.101665 -36.456664 -0.000001 -0.000001 -0.000001 2.103288 20.545848 -24.812687 -25.524221 7.652015 11.985524 0.000001 30.251075 -0.000001 19.634120 22.210607 -15.899273 2.909511 -5.658592 54.394144 3.753783 -6.173566 62.571547 1.464112 -4.272952 37.813488 0.000000 -0.000001 0.000000 25.626221 -6.949367 30.094008 13.709598 -18.489559 -19.718973 4.019192 -3.678611 -12.570874 -0.000001 0.000003 -0.000001 4.243574 -6.402587 67.041093 3.958612 -6.274991 64.460709 1.067728 -3.707557 32.121833 0.000002 0.000002 0.000002 2.909512 -5.658593 54.394134 3.753776 -6.173568 62.571561 1.464122 -4.272951 37.813485 0.000000 0.000001 0.000000 4.243563 -6.402580 67.041087 3.958618 -6.275035 64.460716 1.067719 -3.707550 32.121830 -0.000005 -0.000000 -0.000000 -41.511424 -19.122919 38.500588 46.759468 -5.139363 9.867740 -12.417213 -2.591796 -32.248950 -0.109238 0.000006 0.000003 0.000000 -0.000003 -0.000001 -65.972947 0.478018 -30.898410 69.821800 -7.888095 -0.892873 -2.217595 -1.856608 22.668460 -0.000052 -0.000007 0.000003 -0.000000 0.000002 0.000000 
-55.269558 150.250793 144.578934 12.776498 56.071601 -16.417381 11.793880 -4.331908 -1.196600 2.488910 -0.351754 1.383398 2.513529 -0.225578 1.337261 3.700682 -6.340268 -3.855735 3.678777 -46.509466 41.984070 -0.000000 -0.000000 -0.000001 -0.000000 -0.000000 -0.000001 -0.000000 -0.000000 -0.000001 4.634259 -34.710099 0.303850 -54.601195 -24.285400 -45.530502 0.000008 -96.751966 0.000047 -43.937545 -10.880447 39.550385 1.973184 4.829007 -44.431043 4.287482 6.375841 -67.808383 1.798338 4.644567 -42.313941 0.000002 0.000000 0.000000 21.517372 8.235281 -27.163346 22.939349 19.036057 12.459570 7.969181 6.174911 9.535368 0.000001 0.000001 0.000000 2.917507 5.629439 -54.764095 4.896155 6.589973 -73.195401 1.351326 4.101653 -36.456681 -0.000002 0.000001 -0.000001 1.974541 4.830412 -44.447149 4.285694 6.375120 -67.792223 1.798337 4.644563 -42.313930 0.000002 -0.000000 -0.000000 6.249860 7.972525 -54.648477 4.909036 2.506898 -73.357741 1.351310 4.101664 -36.456667 0.000000 -0.000002 0.000001 2.934303 20.707482 -23.182354 -23.478726 10.549404 11.126357 0.000005 31.168267 -0.000005 15.514580 20.569094 -16.008032 2.909507 -5.658595 54.394144 3.753784 -6.173573 62.571547 1.464118 -4.272953 37.813478 0.000000 -0.000001 0.000004 25.626216 -6.949366 30.094005 13.709598 -18.489558 -19.718973 4.019195 -3.678605 -12.570872 -0.000001 -0.000002 0.000003 4.243571 -6.402583 67.041087 3.958618 -6.274994 64.460716 1.067727 -3.707558 32.121826 -0.000000 0.000002 -0.000004 2.909508 -5.658591 54.394134 3.753773 -6.173571 62.571554 1.464123 -4.272951 37.813485 -0.000002 0.000001 0.000001 4.243556 -6.402581 67.041087 3.958617 -6.275033 64.460709 1.067729 -3.707552 32.121823 -0.000001 0.000001 -0.000001 -41.343398 -18.950732 36.970417 50.859467 -6.044672 9.906334 -13.568259 0.104253 -31.488425 -0.104733 0.000003 0.000012 -0.000000 0.000002 -0.000001 -61.530586 0.217818 -30.724838 65.345875 -8.838322 -1.395532 0.139673 -1.367066 24.356484 -0.066216 0.000010 0.000000 -0.000000 0.000000 -0.000000 
